<svg xmlns="http://www.w3.org/2000/svg" xmlns:xlink="http://www.w3.org/1999/xlink" preserveAspectRatio="xMidYMid" width="25" height="40" viewBox="0 0 25 40">
  <defs>
    <style>
      .cls-1 {
        fill: #0192d1;
        fill-rule: evenodd;
      }
    </style>
  </defs>
  <path d="M24.156,14.702 L23.027,15.843 C22.490,16.386 22.168,17.147 22.168,17.907 L22.168,19.483 C22.168,21.112 20.878,22.416 19.266,22.416 L17.708,22.416 C16.956,22.416 16.204,22.742 15.667,23.285 L14.538,24.426 C13.410,25.567 11.583,25.567 10.455,24.426 L9.327,23.285 C8.790,22.742 8.037,22.416 7.285,22.416 L5.727,22.416 C4.115,22.416 2.826,21.112 2.826,19.483 L2.826,17.907 C2.826,17.147 2.503,16.386 1.966,15.843 L0.838,14.702 C-0.290,13.561 -0.290,11.714 0.838,10.573 L1.966,9.432 C2.503,8.889 2.826,8.128 2.826,7.368 L2.826,5.792 C2.826,4.163 4.115,2.859 5.727,2.859 L7.285,2.859 C8.037,2.859 8.790,2.533 9.327,1.990 L10.455,0.849 C11.583,-0.292 13.410,-0.292 14.538,0.849 L15.667,1.990 C16.204,2.533 16.956,2.859 17.708,2.859 L19.266,2.859 C20.878,2.859 22.168,4.163 22.168,5.792 L22.168,7.368 C22.168,8.128 22.490,8.889 23.027,9.432 L24.156,10.573 C25.284,11.714 25.284,13.561 24.156,14.702 ZM12.550,3.945 C7.822,3.945 3.954,7.857 3.954,12.638 C3.954,17.418 7.822,21.330 12.550,21.330 C17.278,21.330 21.147,17.418 21.147,12.638 C21.147,7.857 17.278,3.945 12.550,3.945 ZM12.550,17.203 C10.031,17.203 7.982,15.131 7.982,12.583 C7.982,10.036 10.031,7.963 12.550,7.963 C15.070,7.963 17.119,10.036 17.119,12.583 C17.119,15.131 15.070,17.203 12.550,17.203 ZM6.855,25.241 C7.745,25.241 8.467,25.971 8.467,26.871 L8.467,36.203 L11.525,34.559 C12.185,34.224 12.941,34.204 13.633,34.485 L13.791,34.559 L16.849,36.203 L16.849,26.871 C16.849,25.971 17.570,25.241 18.461,25.241 C19.351,25.241 20.072,25.971 20.072,26.871 L20.072,37.573 C20.072,38.415 19.647,39.184 18.934,39.629 C18.539,39.876 18.096,40.000 17.651,40.000 C17.279,40.000 16.905,39.913 16.557,39.737 L12.657,37.641 L8.794,39.718 C7.995,40.123 7.107,40.083 6.382,39.629 C5.669,39.184 5.243,38.415 5.243,37.573 L5.243,26.871 C5.243,25.971 5.965,25.241 6.855,25.241 Z" class="cls-1"/>
</svg>
