<svg xmlns="http://www.w3.org/2000/svg" xmlns:xlink="http://www.w3.org/1999/xlink" preserveAspectRatio="xMidYMid" width="26" height="30" viewBox="0 0 26 30">
  <defs>
    <style>
      .cls-1 {
        fill: #0275b3;
        fill-rule: evenodd;
      }
    </style>
  </defs>
  <path d="M24.328,29.982 L1.645,29.982 C0.744,29.982 0.014,29.229 0.014,28.318 L0.014,25.919 C0.014,24.758 0.229,23.619 0.685,22.593 C1.138,21.510 1.824,20.542 2.593,19.764 C3.540,18.875 4.663,18.143 5.904,17.699 L5.644,17.484 C3.754,15.626 2.593,13.034 2.593,10.227 C2.593,7.405 3.754,4.832 5.644,2.975 C7.537,1.117 10.114,-0.008 12.988,-0.008 C15.864,-0.008 18.484,1.117 20.373,2.975 C22.263,4.832 23.406,7.405 23.406,10.227 C23.406,13.034 22.263,15.626 20.373,17.484 L20.099,17.699 L20.473,17.832 C21.596,18.298 22.578,18.955 23.384,19.764 C24.197,20.542 24.862,21.510 25.314,22.593 C25.747,23.637 26.007,24.758 26.007,25.919 L26.007,28.318 C26.007,29.229 25.259,29.982 24.328,29.982 ZM18.014,5.294 C16.731,4.057 14.976,3.265 12.988,3.265 C11.062,3.265 9.268,4.057 8.005,5.294 C6.728,6.553 5.904,8.294 5.904,10.227 C5.904,12.145 6.728,13.884 8.005,15.160 C10.763,17.832 15.236,17.832 18.014,15.160 C19.308,13.884 20.077,12.145 20.077,10.227 C20.077,8.294 19.308,6.553 18.014,5.294 ZM22.698,25.919 C22.698,25.185 22.541,24.489 22.263,23.830 C21.968,23.170 21.533,22.593 21.024,22.088 C20.512,21.549 19.903,21.158 19.232,20.873 C18.561,20.578 17.853,20.445 17.085,20.445 L14.800,20.445 L14.800,26.695 L11.182,26.695 L11.182,20.445 L8.914,20.445 C7.356,20.445 5.998,21.044 4.958,22.088 C4.440,22.593 4.009,23.170 3.754,23.830 C3.481,24.489 3.323,25.185 3.323,25.919 L3.323,26.695 L22.698,26.695 L22.698,25.919 Z" class="cls-1"/>
</svg>
