<svg xmlns="http://www.w3.org/2000/svg" xmlns:xlink="http://www.w3.org/1999/xlink" preserveAspectRatio="xMidYMid" width="23" height="24" viewBox="0 0 23 24">
  <defs>
    <style>
      .cls-1 {
        fill: #009edf;
        fill-rule: evenodd;
      }
    </style>
  </defs>
  <path d="M11.506,-0.000 C14.679,-0.000 17.554,1.348 19.638,3.529 L19.674,3.576 C21.732,5.743 23.000,8.726 23.000,12.000 C23.000,13.297 22.799,14.546 22.429,15.718 C22.083,16.831 21.580,17.872 20.954,18.815 L20.954,23.077 C20.954,23.587 20.564,24.000 20.077,24.000 L20.050,24.000 L11.506,24.000 C8.330,24.000 5.457,22.645 3.375,20.497 L3.375,20.485 L3.363,20.497 C1.292,18.318 -0.000,15.313 -0.000,12.000 C-0.000,8.700 1.292,5.703 3.375,3.529 L3.363,3.529 C5.457,1.348 8.330,-0.000 11.506,-0.000 M5.771,9.604 L5.771,9.604 C5.470,9.604 5.239,9.356 5.239,9.049 C5.239,8.747 5.470,8.491 5.771,8.491 L17.227,8.491 C17.529,8.491 17.755,8.747 17.755,9.049 C17.755,9.356 17.529,9.604 17.227,9.604 L5.771,9.604 ZM5.771,12.557 L5.771,12.557 C5.470,12.557 5.239,12.313 5.239,12.000 C5.239,11.700 5.470,11.443 5.771,11.443 L17.227,11.443 C17.529,11.443 17.755,11.700 17.755,12.000 C17.755,12.313 17.529,12.557 17.227,12.557 L5.771,12.557 ZM5.771,15.508 L5.771,15.508 C5.470,15.508 5.239,15.259 5.239,14.946 C5.239,14.657 5.470,14.403 5.771,14.403 L17.227,14.403 C17.529,14.403 17.755,14.657 17.755,14.946 C17.755,15.259 17.529,15.508 17.227,15.508 L5.771,15.508 ZM18.377,4.825 L18.377,4.825 C16.614,2.986 14.191,1.846 11.506,1.846 C8.821,1.846 6.387,2.986 4.617,4.825 L4.617,4.818 L4.617,4.825 C2.853,6.658 1.769,9.198 1.769,12.000 C1.769,14.814 2.853,17.356 4.617,19.177 C6.387,21.015 8.808,22.154 11.506,22.154 L19.184,22.154 L19.184,18.528 L19.199,18.528 C19.199,18.344 19.247,18.154 19.360,17.997 C19.962,17.133 20.439,16.177 20.754,15.155 C21.059,14.161 21.230,13.114 21.230,12.000 C21.230,9.217 20.152,6.690 18.419,4.865 L18.377,4.825 Z" class="cls-1"/>
</svg>
