<svg xmlns="http://www.w3.org/2000/svg" xmlns:xlink="http://www.w3.org/1999/xlink" preserveAspectRatio="xMidYMid" width="24" height="24" viewBox="0 0 24 24">
  <defs>
    <style>
      .cls-1 {
        fill: #a2a5af;
        fill-rule: evenodd;
      }
    </style>
  </defs>
  <path d="M21.333,0.000 L2.667,0.000 C1.200,0.000 -0.000,1.200 -0.000,2.667 L-0.000,21.333 C-0.000,22.801 1.200,24.000 2.667,24.000 L12.000,24.000 L12.000,14.667 L9.333,14.667 L9.333,11.367 L12.000,11.367 L12.000,8.633 C12.000,5.748 13.616,3.721 17.021,3.721 L19.425,3.724 L19.425,7.197 L17.829,7.197 C16.504,7.197 16.000,8.192 16.000,9.115 L16.000,11.368 L19.424,11.368 L18.667,14.667 L16.000,14.667 L16.000,24.000 L21.333,24.000 C22.800,24.000 24.000,22.801 24.000,21.333 L24.000,2.667 C24.000,1.200 22.800,0.000 21.333,0.000 Z" class="cls-1"/>
</svg>
