<svg xmlns="http://www.w3.org/2000/svg" xmlns:xlink="http://www.w3.org/1999/xlink" preserveAspectRatio="xMidYMid" width="24" height="24.03" viewBox="0 0 24 24.03">
  <defs>
    <style>
      .cls-1 {
        fill: #a2a5af;
        fill-rule: evenodd;
      }
    </style>
  </defs>
  <path d="M1.264,5.976 C1.264,8.016 1.930,9.488 3.244,10.352 C4.320,11.062 5.568,11.169 6.217,11.169 C6.375,11.169 6.502,11.160 6.590,11.155 C6.590,11.155 6.384,12.526 7.378,13.880 L7.333,13.880 C5.611,13.880 -0.005,14.247 -0.005,18.969 C-0.005,23.769 5.153,24.013 6.188,24.013 C6.270,24.013 6.318,24.011 6.318,24.011 C6.328,24.011 6.402,24.013 6.529,24.013 C7.193,24.013 8.909,23.929 10.503,23.135 C12.571,22.111 13.620,20.324 13.620,17.831 C13.620,15.423 12.022,13.989 10.856,12.941 C10.144,12.300 9.528,11.749 9.528,11.212 C9.528,10.666 9.978,10.255 10.546,9.735 C11.466,8.895 12.335,7.698 12.335,5.434 C12.335,3.445 12.082,2.109 10.526,1.261 C10.687,1.176 11.262,1.115 11.545,1.074 C12.388,0.956 13.621,0.823 13.621,0.119 L13.621,-0.016 L7.477,-0.016 C7.416,-0.013 1.264,0.219 1.264,5.976 ZM11.182,18.282 C11.299,20.201 9.692,21.617 7.278,21.796 C4.827,21.980 2.809,20.853 2.692,18.934 C2.634,18.011 3.031,17.110 3.807,16.391 C4.594,15.663 5.675,15.213 6.851,15.124 C6.990,15.116 7.127,15.107 7.265,15.107 C9.535,15.109 11.071,16.471 11.182,18.282 ZM9.577,4.662 C10.180,6.830 9.270,9.093 7.819,9.513 C7.652,9.560 7.481,9.584 7.306,9.584 C5.978,9.584 4.662,8.210 4.173,6.316 C3.901,5.257 3.924,4.326 4.236,3.433 C4.542,2.552 5.095,1.961 5.790,1.760 C5.957,1.713 6.129,1.688 6.304,1.688 C7.907,1.688 8.939,2.368 9.577,4.662 ZM19.982,9.268 L19.982,5.172 L17.310,5.172 L17.310,9.268 L13.302,9.268 L13.302,11.999 L17.310,11.999 L17.310,16.095 L19.982,16.095 L19.982,11.999 L23.989,11.999 L23.989,9.268 L19.982,9.268 Z" class="cls-1"/>
</svg>
