<svg xmlns="http://www.w3.org/2000/svg" xmlns:xlink="http://www.w3.org/1999/xlink" preserveAspectRatio="xMidYMid" width="24" height="24" viewBox="0 0 24 24">
  <defs>
    <style>
      .cls-1 {
        fill: #a2a5af;
        fill-rule: evenodd;
      }
    </style>
  </defs>
  <path d="M18.667,24.000 L18.667,14.852 C18.667,12.727 17.857,11.105 16.000,11.105 C14.584,11.105 13.875,12.252 13.503,13.197 C13.367,13.536 13.333,14.008 13.333,14.481 L13.333,24.000 L8.000,24.000 L8.000,12.592 C8.000,10.532 7.932,8.811 7.864,7.324 L12.656,7.324 L12.893,9.621 L12.995,9.621 C13.669,8.540 15.323,6.955 18.091,6.955 C21.467,6.955 24.000,9.215 24.000,14.077 L24.000,24.000 L18.667,24.000 ZM-0.000,6.667 L5.333,6.667 L5.333,24.000 L-0.000,24.000 L-0.000,6.667 ZM2.665,5.301 C1.045,5.301 -0.000,4.152 -0.000,2.736 C-0.000,1.283 1.013,0.000 2.667,0.000 C4.320,0.000 5.301,1.213 5.333,2.667 C5.333,4.083 4.387,5.301 2.665,5.301 Z" class="cls-1"/>
</svg>
