<svg xmlns="http://www.w3.org/2000/svg" xmlns:xlink="http://www.w3.org/1999/xlink" preserveAspectRatio="xMidYMid" width="31" height="26" viewBox="0 0 31 26">
  <defs>
    <style>
      .cls-1 {
        fill: #0192d1;
        fill-rule: evenodd;
      }
    </style>
  </defs>
  <path d="M29.898,3.116 L26.384,3.116 L26.384,1.118 C26.384,0.523 25.868,-0.003 25.248,-0.003 L1.068,-0.003 C0.482,-0.003 -0.000,0.523 -0.000,1.118 L-0.000,22.530 C-0.000,24.422 1.550,25.999 3.410,25.999 L27.590,25.999 C29.450,25.964 31.000,24.457 31.000,22.530 L31.000,4.202 C31.000,3.606 30.518,3.116 29.898,3.116 L29.898,3.116 ZM3.410,23.721 C2.756,23.721 2.239,23.195 2.239,22.530 L2.239,2.275 L24.180,2.275 L24.180,22.530 C24.180,22.915 24.249,23.336 24.387,23.721 L3.410,23.721 ZM28.761,22.530 C28.761,23.195 28.244,23.721 27.556,23.721 C26.901,23.721 26.350,23.195 26.350,22.530 L26.350,5.359 L28.761,5.359 L28.761,22.530 ZM13.950,14.645 L21.941,14.645 L21.941,12.648 L13.950,12.648 L13.950,14.645 ZM13.950,19.831 L21.941,19.831 L21.941,17.834 L13.950,17.834 L13.950,19.831 ZM4.409,5.499 L4.409,9.494 L21.941,9.494 L21.941,5.499 L4.409,5.499 ZM4.409,19.831 L11.814,19.831 L11.814,12.683 L4.409,12.683 L4.409,19.831 Z" class="cls-1"/>
</svg>
