<svg xmlns="http://www.w3.org/2000/svg" xmlns:xlink="http://www.w3.org/1999/xlink" preserveAspectRatio="xMidYMid" width="19" height="20" viewBox="0 0 19 20">
  <defs>
    <style>
      .cls-1 {
        fill: #fff;
        fill-rule: evenodd;
      }
    </style>
  </defs>
  <path d="M18.562,16.911 L14.018,12.131 C14.703,10.948 15.097,9.557 15.097,8.071 C15.097,3.748 11.537,0.004 7.428,0.004 C3.319,0.003 -0.011,3.507 -0.011,7.829 C-0.011,12.150 3.550,15.896 7.658,15.896 C9.025,15.896 10.303,15.505 11.403,14.828 L15.972,19.636 C16.419,20.105 17.144,20.105 17.590,19.636 L18.724,18.443 C19.170,17.974 19.008,17.381 18.562,16.911 ZM2.279,7.829 C2.279,4.836 4.584,2.411 7.428,2.411 C10.273,2.411 12.808,5.076 12.808,8.071 C12.808,11.062 10.501,13.488 7.658,13.488 C4.812,13.487 2.279,10.821 2.279,7.829 Z" class="cls-1"/>
</svg>
