<svg xmlns="http://www.w3.org/2000/svg" xmlns:xlink="http://www.w3.org/1999/xlink" preserveAspectRatio="xMidYMid" width="13" height="14" viewBox="0 0 13 14">
  <defs>
    <style>
      .cls-1 {
        fill: #b9e9ff;
        fill-rule: evenodd;
      }
    </style>
  </defs>
  <path d="M10.583,9.126 C11.249,9.126 11.851,9.401 12.289,9.837 L12.296,9.837 C12.728,10.279 13.000,10.890 13.000,11.563 C13.000,12.908 11.911,14.000 10.583,14.000 C9.257,14.000 8.175,12.908 8.175,11.563 C8.175,11.284 8.221,11.017 8.304,10.769 L5.740,9.218 C5.699,9.260 5.657,9.310 5.615,9.348 L5.581,9.375 C4.992,9.967 4.182,10.325 3.290,10.325 C1.482,10.325 -0.000,8.824 -0.000,6.994 C-0.000,5.169 1.482,3.675 3.290,3.675 C4.197,3.675 5.022,4.049 5.615,4.649 L5.615,4.657 L5.615,4.649 C5.657,4.691 5.699,4.741 5.740,4.783 L8.304,3.228 C8.221,2.984 8.175,2.716 8.175,2.441 C8.175,1.093 9.264,-0.000 10.583,-0.000 C11.911,-0.000 13.000,1.093 13.000,2.441 C13.000,3.774 11.911,4.875 10.583,4.875 C9.922,4.875 9.317,4.599 8.878,4.153 L8.864,4.141 L6.314,5.684 C6.489,6.086 6.579,6.533 6.579,6.994 C6.579,7.461 6.489,7.907 6.314,8.316 L8.864,9.851 L8.878,9.837 L8.890,9.833 C9.325,9.394 9.922,9.126 10.583,9.126 M11.540,10.601 L11.540,10.601 C11.299,10.352 10.958,10.199 10.583,10.199 C10.217,10.199 9.877,10.352 9.635,10.601 C9.392,10.845 9.237,11.185 9.237,11.563 C9.237,12.308 9.847,12.923 10.583,12.923 C11.325,12.923 11.934,12.312 11.934,11.563 C11.934,11.185 11.783,10.845 11.540,10.601 M4.863,5.409 L4.863,5.409 C4.462,5.008 3.910,4.752 3.290,4.752 C2.065,4.752 1.070,5.761 1.070,6.994 C1.070,8.236 2.065,9.245 3.290,9.245 C3.891,9.245 4.439,9.000 4.840,8.611 L4.863,8.584 C5.264,8.179 5.513,7.617 5.513,6.994 C5.513,6.384 5.264,5.810 4.863,5.409 M10.583,1.074 L10.583,1.074 C9.847,1.074 9.237,1.677 9.237,2.441 C9.237,2.693 9.314,2.942 9.438,3.144 L9.446,3.167 C9.495,3.236 9.551,3.308 9.608,3.377 L9.635,3.396 C9.877,3.649 10.217,3.794 10.583,3.794 C11.325,3.794 11.934,3.190 11.934,2.441 C11.934,1.677 11.329,1.074 10.583,1.074 " class="cls-1"/>
</svg>
