<svg xmlns="http://www.w3.org/2000/svg" xmlns:xlink="http://www.w3.org/1999/xlink" preserveAspectRatio="xMidYMid" width="24.97" height="20.97" viewBox="0 0 24.97 20.97">
  <defs>
    <style>
      .cls-1 {
        fill: #a2a5af;
        fill-rule: evenodd;
      }
    </style>
  </defs>
  <path d="M22.395,5.211 C22.406,5.439 22.410,5.669 22.410,5.896 C22.410,12.902 17.257,20.978 7.836,20.978 C4.942,20.978 2.251,20.100 -0.017,18.595 C0.385,18.644 0.792,18.670 1.205,18.670 C3.607,18.670 5.814,17.822 7.566,16.402 C5.326,16.359 3.433,14.828 2.781,12.722 C3.094,12.783 3.415,12.815 3.745,12.815 C4.213,12.815 4.666,12.752 5.095,12.631 C2.752,12.143 0.986,10.001 0.986,7.432 C0.986,7.410 0.986,7.389 0.986,7.366 C1.677,7.764 2.468,8.002 3.307,8.030 C1.932,7.078 1.027,5.458 1.027,3.618 C1.027,2.648 1.279,1.736 1.722,0.953 C4.247,4.161 8.023,6.270 12.280,6.492 C12.193,6.103 12.148,5.700 12.148,5.283 C12.148,2.357 14.440,-0.014 17.270,-0.014 C18.743,-0.014 20.074,0.627 21.009,1.658 C22.175,1.419 23.271,0.978 24.262,0.372 C23.879,1.609 23.066,2.648 22.009,3.303 C23.046,3.174 24.031,2.892 24.951,2.469 C24.265,3.533 23.396,4.466 22.395,5.211 Z" class="cls-1"/>
</svg>
