<svg xmlns="http://www.w3.org/2000/svg" xmlns:xlink="http://www.w3.org/1999/xlink" preserveAspectRatio="xMidYMid" width="18.04" height="14.97" viewBox="0 0 18.04 14.97">
  <defs>
    <style>
      .cls-1 {
        fill: #fff;
        fill-rule: evenodd;
      }
    </style>
  </defs>
  <path d="M16.194,3.719 C16.202,3.881 16.205,4.046 16.205,4.208 C16.205,9.212 12.483,14.981 5.676,14.981 C3.585,14.981 1.640,14.354 0.002,13.279 C0.292,13.314 0.586,13.332 0.885,13.332 C2.620,13.332 4.215,12.726 5.481,11.712 C3.862,11.681 2.494,10.588 2.024,9.084 C2.249,9.127 2.482,9.150 2.720,9.150 C3.058,9.150 3.386,9.105 3.695,9.019 C2.002,8.670 0.727,7.141 0.727,5.305 C0.727,5.289 0.727,5.274 0.727,5.258 C1.226,5.542 1.797,5.713 2.403,5.733 C1.410,5.053 0.756,3.895 0.756,2.581 C0.756,1.888 0.938,1.237 1.258,0.677 C3.083,2.969 5.811,4.475 8.886,4.633 C8.824,4.356 8.791,4.068 8.791,3.770 C8.791,1.680 10.447,-0.014 12.491,-0.014 C13.556,-0.014 14.518,0.445 15.193,1.181 C16.036,1.010 16.828,0.695 17.543,0.262 C17.267,1.146 16.680,1.888 15.916,2.356 C16.665,2.264 17.377,2.062 18.041,1.760 C17.545,2.521 16.918,3.186 16.194,3.719 Z" class="cls-1"/>
</svg>
